<svg xmlns="http://www.w3.org/2000/svg" width="48" height="48" viewBox="0 0 48 48" fill="none" stroke="currentColor" stroke-width="2" stroke-linecap="round" stroke-linejoin="round" aria-label="ROS 2 Robotic Nervous System - Interconnected nodes">
  <!-- Central node -->
  <circle cx="24" cy="24" r="4"/>

  <!-- Top node -->
  <circle cx="24" cy="8" r="3"/>
  <line x1="24" y1="11" x2="24" y2="20"/>

  <!-- Bottom node -->
  <circle cx="24" cy="40" r="3"/>
  <line x1="24" y1="37" x2="24" y2="28"/>

  <!-- Left node -->
  <circle cx="8" cy="24" r="3"/>
  <line x1="11" y1="24" x2="20" y2="24"/>

  <!-- Right node -->
  <circle cx="40" cy="24" r="3"/>
  <line x1="37" y1="24" x2="28" y2="24"/>

  <!-- Top-left node -->
  <circle cx="12" cy="12" r="2.5"/>
  <line x1="13.8" y1="13.8" x2="21" y2="21"/>

  <!-- Top-right node -->
  <circle cx="36" cy="12" r="2.5"/>
  <line x1="34.2" y1="13.8" x2="27" y2="21"/>

  <!-- Bottom-left node -->
  <circle cx="12" cy="36" r="2.5"/>
  <line x1="13.8" y1="34.2" x2="21" y2="27"/>

  <!-- Bottom-right node -->
  <circle cx="36" cy="36" r="2.5"/>
  <line x1="34.2" y1="34.2" x2="27" y2="27"/>
</svg>
