<svg xmlns="http://www.w3.org/2000/svg" width="48" height="48" viewBox="0 0 48 48" fill="none" stroke="currentColor" stroke-width="2" stroke-linecap="round" stroke-linejoin="round" aria-label="Vision-Language-Action - Brain with communication">
  <!-- Brain outline (left hemisphere) -->
  <path d="M 18 12 Q 12 12 10 18 Q 8 24 10 30 Q 12 36 18 36 Q 18 30 18 24 Q 18 18 18 12"/>

  <!-- Brain outline (right hemisphere) -->
  <path d="M 18 12 Q 24 12 26 18 Q 28 24 26 30 Q 24 36 18 36"/>

  <!-- Brain divisions -->
  <path d="M 18 12 Q 20 18 18 24"/>
  <path d="M 18 24 Q 16 30 18 36"/>

  <!-- Chat bubble -->
  <rect x="26" y="20" width="16" height="12" rx="2"/>
  <path d="M 30 32 L 28 36 L 32 32"/>

  <!-- Chat lines (text) -->
  <line x1="29" y1="24" x2="39" y2="24"/>
  <line x1="29" y1="28" x2="36" y2="28"/>

  <!-- Connection line brain to chat -->
  <line x1="24" y1="24" x2="26" y2="26" stroke-dasharray="2,2"/>
</svg>
